<?xml version="1.0" encoding="UTF-8" standalone="no"?>
<svg width="1024px" height="1024px" viewBox="0 0 1024 1024" version="1.1" xmlns="http://www.w3.org/2000/svg" xmlns:xlink="http://www.w3.org/1999/xlink" xmlns:sketch="http://www.bohemiancoding.com/sketch/ns">
    <!-- Generator: Sketch 3.2.2 (9983) - http://www.bohemiancoding.com/sketch -->
    <title>icon@svg</title>
    <desc>Created with Sketch.</desc>
    <defs>
        <path id="path-1" d="M959.503875,757.273 C958.782875,777.383125 957.188625,803.332125 954.778,815.156 C951.154625,832.92375 945.685,849.694 938.55375,863.652875 C930.116125,880.165 919.35275,894.956 906.564625,907.721375 C893.803625,920.4605 879.0275,931.181875 862.539,939.585375 C848.5075,946.735875 831.631375,952.208125 813.763,955.81575 C802.05725,958.179125 776.3025,959.74275 756.320125,960.45325 C748.093375,960.746375 737.451625,960.89425 732.563875,960.89425 L291.366125,960.823375 C286.46,960.823375 275.82175,960.67375 267.602875,960.378875 C247.491875,959.657 221.54375,958.063625 209.719,955.653 C191.952125,952.029625 175.181,946.560875 161.223,939.42875 C144.71,930.992 129.919,920.22775 117.153625,907.439625 C104.4145,894.678625 93.693125,879.9025 85.2905,863.414 C78.139125,849.381625 72.666875,832.506375 69.05925,814.638 C66.695875,802.93225 65.13225,777.1775 64.42175,757.195125 C64.1295,748.968375 63.981625,738.32575 63.981625,733.438875 L64.0525,292.241125 C64.0525,287.335 64.202125,276.695875 64.497,268.477 C65.218875,248.366875 66.81225,222.417875 69.222875,210.594875 C72.84625,192.827125 78.315,176.056 85.447125,162.097125 C93.88475,145.585 104.648125,130.794 117.43625,118.028625 C130.19725,105.2895 144.973375,94.568125 161.461875,86.164625 C175.49425,79.014125 192.370375,73.541875 210.23875,69.93425 C221.9445,67.570875 247.698375,66.00725 267.681625,65.29675 C275.908375,65.003625 286.551,64.85575 291.437,64.85575 L732.63475,64.926625 C737.54175,64.926625 748.18,65.07625 756.398875,65.371125 C776.509,66.093 802.457125,67.68725 814.281875,70.097 C832.04875,73.720375 848.819875,79.189125 862.77875,86.32125 C879.290875,94.758875 894.081875,105.52225 906.84725,118.310375 C919.5855,131.071375 930.306875,145.8475 938.710375,162.336 C945.86175,176.368375 951.334,193.243625 954.941625,211.112 C957.305,222.81775 958.86775,248.5725 959.579125,268.554875 C959.87225,276.781625 960.020125,287.423375 960.020125,292.311125 L959.948375,733.508875 C959.948375,738.415 959.79875,749.054125 959.503875,757.273 Z"></path>
        <linearGradient x1="50%" y1="0%" x2="50%" y2="100%" id="linearGradient-3">
            <stop stop-color="#00B09E" offset="0%"></stop>
            <stop stop-color="#009688" offset="100%"></stop>
        </linearGradient>
    </defs>
    <g id="OS-X" stroke="none" stroke-width="1" fill="none" fill-rule="evenodd" sketch:type="MSPage">
        <g id="icon" sketch:type="MSArtboardGroup">
            <mask id="mask-2" sketch:name="mask" fill="white">
                <use xlink:href="#path-1"></use>
            </mask>
            <g id="mask"></g>
            <rect id="Rectangle-7" fill="url(#linearGradient-3)" sketch:type="MSShapeGroup" mask="url(#mask-2)" x="64" y="64" width="896" height="896"></rect>
            <path d="M749.38925,276.84025 C688.726375,216.126625 608.051375,182.673625 522.0975,182.6395 C344.994875,182.6395 200.85525,326.724 200.784375,503.8275 C200.761625,560.439125 215.557,615.700625 243.67425,664.410125 L198.09025,830.8605 L368.423,786.194375 C415.353625,811.782875 468.19225,825.268375 521.96975,825.291125 L522.101,825.291125 C522.1115,825.291125 522.091375,825.291125 522.101875,825.291125 C699.186125,825.291125 843.338875,681.187375 843.410625,504.083875 C843.443875,418.256875 810.053875,337.553875 749.38925,276.84025 L749.38925,276.84025 Z M522.101,771.041125 L521.991625,771.041125 C474.071375,771.021875 427.069,758.15325 386.0665,733.82825 L376.314625,728.041875 L275.23725,754.54825 L302.217,656.03025 L295.86625,645.930125 C269.13325,603.422625 255.01425,554.29225 255.034375,503.8485 C255.093,356.64725 374.897125,236.8895 522.206875,236.8895 C593.53775,236.916625 660.591625,264.724125 711.0135,315.18625 C761.435375,365.648375 789.18775,432.72675 789.160625,504.062875 C789.10025,651.2755 669.297875,771.041125 522.101,771.041125 L522.101,771.041125 Z M668.589125,571.0905 C660.560125,567.073375 621.088875,547.65625 613.72925,544.977875 C606.3705,542.2995 601.019,540.96075 595.666625,548.995875 C590.315125,557.030125 574.929125,575.1085 570.24525,580.464375 C565.56225,585.821125 560.87925,586.491375 552.851125,582.473375 C544.822125,578.45625 518.953625,569.981 488.288375,542.638125 C464.42275,521.358125 448.30875,495.073125 443.62575,487.038 C438.94275,479.002875 443.127875,474.659375 447.14675,470.658 C450.757875,467.062625 455.174875,461.284125 459.189375,456.597625 C463.203,451.911125 464.54175,448.5625 467.2175,443.206625 C469.894125,437.849875 468.555375,433.163375 466.548125,429.145375 C464.54175,425.12825 448.4855,385.62375 441.79525,369.55525 C435.279125,353.905 428.65975,356.0225 423.73175,355.776625 C419.054,355.543875 413.696375,355.494875 408.344875,355.494875 C402.993375,355.494875 394.295,357.503 386.93625,365.538125 C379.5775,373.57325 358.837375,392.990375 358.837375,432.494 C358.837375,471.997625 387.60475,510.161625 391.61925,515.518375 C395.632875,520.875125 448.230875,601.943 528.767625,636.707625 C547.92225,644.976375 562.87775,649.914 574.53625,653.614375 C593.769625,659.721 611.271375,658.86 625.105125,656.794125 C640.529625,654.49025 672.6045,637.377875 679.295625,618.630125 C685.985875,599.882375 685.985875,583.813 683.978625,580.46525 C681.969625,577.1175 676.61725,575.1085 668.589125,571.0905 L668.589125,571.0905 Z" id="Shape" fill="#FFFFFF" sketch:type="MSShapeGroup" mask="url(#mask-2)"></path>
        </g>
    </g>
</svg>