<svg width="132px" height="94px" viewBox="0 0 185 148">
  <g fill="#009688" fill-rule="evenodd">
    <path d="M185,68.7142857 C185,30.7769524 143.60625,0 92.5,0 C41.4091667,0 0,30.7769524 0,68.7142857 C0,88.5110476 11.3235417,106.29219 29.36875,118.81581 C25.9770833,126.828952 20.2266667,137.287619 10.49875,148 C28.9679167,148 52.7635417,145.787048 71.08625,135.476381 C77.9852083,136.716762 85.123125,137.414476 92.5,137.414476 C143.590833,137.414476 185,106.651619 185,68.7142857 Z M121.940299,110 L142,37 L125.910448,37 L113.686567,87.302521 L113.477612,87.302521 L100.731343,37 L85.3731343,37 L72.4179104,86.6890756 L72.2089552,86.6890756 L60.4029851,37 L44,37 L63.7462687,110 L80.358209,110 L92.7910448,60.3109244 L93,60.3109244 L105.641791,110 L121.940299,110 Z" />
  </g>
</svg>
